<svg width="612" height="102" viewBox="0 0 612 102" fill="none" xmlns="http://www.w3.org/2000/svg">
<path d="M209.922 17.5205C187.98 3.58807 161.89 -2.31317 136.088 0.820453C132.723 1.22763 129.414 1.773 126.159 2.45657C104.519 7.00824 84.7 17.8344 69.1762 33.583C68.552 34.2754 67.9086 34.9442 67.2458 35.5891C64.0493 38.7246 60.4515 41.4229 56.5464 43.6137C50.7531 46.8672 44.3754 48.9472 37.7778 49.7346C24.4647 51.3306 11.0626 47.5751 0.517138 39.2938C0.343273 39.16 0.182782 39.0218 0 38.8792C0.0624132 39.004 0.120368 39.1244 0.182782 39.2447C6.46869 51.6026 14.9792 62.1994 25.2818 71.4767C30.0106 75.7332 35.0884 79.5851 40.4616 82.992C54.7617 92.0755 70.9268 97.8159 87.753 99.7856C96.5979 100.811 105.536 101.288 114.377 100.231C115.803 100.062 117.217 99.3665 118.621 99.6385C134.389 97.1553 149.453 90.8471 162.809 82.1048C176.167 73.3609 187.516 61.879 196.102 48.4195C202.308 38.7365 206.994 28.6612 210.003 17.5606L209.922 17.5205Z" fill="url(#paint0_linear_284_6)"/>
<path d="M209.922 17.5205C187.98 3.58807 161.89 -2.31317 136.088 0.820453C132.723 1.22763 129.414 1.773 126.159 2.45657C104.519 7.00824 84.7 17.8344 69.1762 33.583C68.552 34.2754 67.9086 34.9442 67.2458 35.5891C64.0493 38.7246 60.4515 41.4229 56.5464 43.6137C50.7531 46.8672 44.3754 48.9472 37.7778 49.7346C24.4647 51.3306 11.0626 47.5751 0.517138 39.2938C0.343273 39.16 0.182782 39.0218 0 38.8792C0.0624132 39.004 0.120368 39.1244 0.182782 39.2447C6.46869 51.6026 14.9792 62.1994 25.2818 71.4767C30.0106 75.7332 35.0884 79.5851 40.4616 82.992C54.7617 92.0755 70.9268 97.8159 87.753 99.7856C96.5979 100.811 105.536 101.288 114.377 100.231C115.803 100.062 117.217 99.3665 118.621 99.6385C134.389 97.1553 149.453 90.8471 162.809 82.1048C176.167 73.3609 187.516 61.879 196.102 48.4195C202.308 38.7365 206.994 28.6612 210.003 17.5606L209.922 17.5205Z" fill="url(#paint1_linear_284_6)"/>
<path d="M195.986 49.8693C187.4 63.3288 176.052 74.8106 162.693 83.5546C149.334 92.298 134.232 98.1678 118.461 100.655C117.061 100.878 115.692 101.058 114.266 101.228C105.425 102.27 96.4882 102.239 87.6371 101.244C70.8111 99.2762 54.646 93.5374 40.3457 84.4551C34.98 81.0441 29.9097 77.1892 25.1882 72.9309C14.8218 63.5543 6.28175 52.3388 0 39.852C2.9713 44.3682 6.62243 48.3982 10.8242 51.7996C20.919 59.7333 33.653 63.5312 46.4444 62.4232C46.9927 62.3742 47.5455 62.3162 48.0939 62.2494L48.9855 62.1825C54.4001 61.8647 59.8177 62.7536 64.8468 64.7852C69.8759 66.8167 74.3909 69.9401 78.0656 73.9296C78.8366 74.99 79.6734 76.001 80.571 76.9566C83.8959 80.5589 88.0349 83.3128 92.6419 84.988C97.2489 86.6633 102.19 87.2112 107.052 86.5861C115.456 85.4582 123.034 80.7905 128.117 74.1569C128.705 73.3946 129.262 72.61 129.788 71.7941C130.166 71.2681 130.557 70.7495 130.961 70.2383C135.846 64.0196 141.908 58.8246 148.802 54.9501C155.696 51.0757 163.285 48.5978 171.137 47.6581H171.168C172.194 47.6001 173.224 47.5065 174.258 47.3638H174.325C190.401 45.2061 204.51 33.6864 210.002 18.5378C210.016 18.5512 205.464 37.0211 195.986 49.8693Z" fill="url(#paint2_linear_284_6)"/>
<path d="M275.539 77.1C271.251 77.1 267.459 76.268 264.163 74.604C260.899 72.94 258.339 70.54 256.483 67.404C254.627 64.236 253.699 60.396 253.699 55.884V54.876C253.699 50.396 254.579 46.588 256.339 43.452C258.099 40.284 260.547 37.868 263.683 36.204C266.851 34.54 270.515 33.708 274.675 33.708H275.683C279.651 33.708 283.139 34.524 286.147 36.156C289.155 37.756 291.507 40.044 293.203 43.02C294.899 45.996 295.747 49.564 295.747 53.724V55.356C295.747 59.42 294.995 62.46 293.491 64.476C292.019 66.492 289.923 67.5 287.203 67.5H285.619C284.307 67.5 283.315 67.212 282.643 66.636C281.971 66.028 281.635 65.228 281.635 64.236V63.756H280.963C280.707 64.428 280.291 65.1 279.715 65.772C279.171 66.412 278.419 66.956 277.459 67.404C276.531 67.852 275.331 68.076 273.859 68.076C271.971 68.076 270.275 67.564 268.771 66.54C267.267 65.516 266.083 64.108 265.219 62.316C264.387 60.524 263.971 58.524 263.971 56.316V55.452C263.971 53.18 264.387 51.164 265.219 49.404C266.051 47.644 267.203 46.252 268.675 45.228C270.147 44.204 271.827 43.692 273.715 43.692C275.155 43.692 276.339 43.9 277.267 44.316C278.195 44.7 278.931 45.196 279.475 45.804C280.019 46.412 280.451 47.02 280.771 47.628H281.443V44.268H285.139V62.892C285.139 63.372 285.219 63.708 285.379 63.9C285.571 64.092 285.891 64.188 286.339 64.188H286.915C288.707 64.188 289.987 63.5 290.755 62.124C291.555 60.716 291.955 58.396 291.955 55.164V53.82C291.955 50.268 291.299 47.26 289.987 44.796C288.675 42.3 286.803 40.396 284.371 39.084C281.939 37.772 279.027 37.116 275.635 37.116H274.819C271.331 37.116 268.291 37.788 265.699 39.132C263.107 40.476 261.091 42.476 259.651 45.132C258.211 47.788 257.491 51.084 257.491 55.02V55.788C257.491 59.692 258.243 62.988 259.747 65.676C261.283 68.332 263.427 70.332 266.179 71.676C268.931 73.02 272.115 73.692 275.731 73.692H285.139V77.1H275.539ZM274.579 64.668C276.595 64.668 278.243 63.916 279.523 62.412C280.803 60.908 281.443 58.812 281.443 56.124V55.644C281.443 52.956 280.803 50.86 279.523 49.356C278.243 47.82 276.595 47.052 274.579 47.052C272.563 47.052 270.915 47.82 269.635 49.356C268.355 50.892 267.715 52.972 267.715 55.596V56.172C267.715 58.764 268.355 60.828 269.635 62.364C270.915 63.9 272.563 64.668 274.579 64.668ZM303.252 77.1V44.028H306.948V47.916H307.62C308.228 46.732 309.204 45.676 310.548 44.748C311.924 43.82 313.828 43.356 316.26 43.356C318.276 43.356 320.116 43.852 321.78 44.844C323.476 45.804 324.82 47.18 325.812 48.972C326.836 50.764 327.348 52.924 327.348 55.452V56.076C327.348 58.572 326.852 60.732 325.86 62.556C324.868 64.38 323.524 65.772 321.828 66.732C320.164 67.692 318.308 68.172 316.26 68.172C314.628 68.172 313.236 67.948 312.084 67.5C310.964 67.084 310.052 66.54 309.348 65.868C308.644 65.196 308.1 64.508 307.716 63.804H307.044V77.1H303.252ZM315.252 64.812C317.684 64.812 319.652 64.044 321.156 62.508C322.692 60.94 323.46 58.764 323.46 55.98V55.548C323.46 52.764 322.692 50.604 321.156 49.068C319.652 47.5 317.684 46.716 315.252 46.716C312.852 46.716 310.868 47.5 309.3 49.068C307.764 50.604 306.996 52.764 306.996 55.548V55.98C306.996 58.764 307.764 60.94 309.3 62.508C310.868 64.044 312.852 64.812 315.252 64.812ZM334.143 67.5V33.9H337.935V47.772H338.607C338.927 47.068 339.407 46.412 340.047 45.804C340.719 45.164 341.567 44.636 342.591 44.22C343.647 43.804 344.975 43.596 346.575 43.596C348.335 43.596 349.903 43.98 351.279 44.748C352.687 45.484 353.807 46.572 354.639 48.012C355.471 49.42 355.887 51.18 355.887 53.292V67.5H352.095V53.58C352.095 51.244 351.503 49.548 350.319 48.492C349.167 47.436 347.599 46.908 345.615 46.908C343.343 46.908 341.487 47.644 340.047 49.116C338.639 50.588 337.935 52.78 337.935 55.692V67.5H334.143ZM372.181 67.932C370.485 67.932 368.917 67.564 367.477 66.828C366.069 66.092 364.949 65.004 364.117 63.564C363.317 62.092 362.917 60.316 362.917 58.236V44.028H366.709V57.948C366.709 60.284 367.285 61.98 368.437 63.036C369.621 64.092 371.205 64.62 373.189 64.62C375.429 64.62 377.269 63.884 378.709 62.412C380.149 60.94 380.869 58.748 380.869 55.836V44.028H384.661V67.5H380.965V63.516H380.293C379.781 64.636 378.901 65.66 377.653 66.588C376.405 67.484 374.581 67.932 372.181 67.932ZM401.236 67.5C399.892 67.5 398.852 67.132 398.116 66.396C397.412 65.66 397.06 64.652 397.06 63.372V47.34H390.004V44.028H397.06V35.676H400.852V44.028H408.532V47.34H400.852V62.796C400.852 63.756 401.316 64.236 402.244 64.236H407.476V67.5H401.236ZM423.65 67.932C421.954 67.932 420.386 67.564 418.946 66.828C417.538 66.092 416.418 65.004 415.586 63.564C414.786 62.092 414.386 60.316 414.386 58.236V44.028H418.178V57.948C418.178 60.284 418.754 61.98 419.906 63.036C421.09 64.092 422.674 64.62 424.658 64.62C426.898 64.62 428.738 63.884 430.178 62.412C431.618 60.94 432.338 58.748 432.338 55.836V44.028H436.13V67.5H432.434V63.516H431.762C431.25 64.636 430.37 65.66 429.122 66.588C427.874 67.484 426.05 67.932 423.65 67.932ZM444.065 67.5V44.028H447.761V46.908H448.433C448.849 45.884 449.489 45.132 450.353 44.652C451.217 44.172 452.353 43.932 453.761 43.932H456.545V47.388H453.521C451.825 47.388 450.449 47.868 449.393 48.828C448.369 49.756 447.857 51.212 447.857 53.196V67.5H444.065ZM472.067 68.172C469.699 68.172 467.619 67.676 465.827 66.684C464.035 65.66 462.643 64.236 461.651 62.412C460.659 60.588 460.163 58.476 460.163 56.076V55.5C460.163 53.068 460.659 50.94 461.651 49.116C462.643 47.292 464.019 45.884 465.779 44.892C467.539 43.868 469.555 43.356 471.827 43.356C474.035 43.356 475.987 43.836 477.683 44.796C479.379 45.724 480.707 47.068 481.667 48.828C482.627 50.588 483.107 52.652 483.107 55.02V56.748H463.955C464.051 59.276 464.867 61.26 466.403 62.7C467.939 64.108 469.859 64.812 472.163 64.812C474.179 64.812 475.731 64.348 476.819 63.42C477.907 62.492 478.739 61.388 479.315 60.108L482.579 61.692C482.099 62.684 481.427 63.676 480.563 64.668C479.731 65.66 478.627 66.492 477.251 67.164C475.907 67.836 474.179 68.172 472.067 68.172ZM464.003 53.628H479.267C479.139 51.452 478.387 49.756 477.011 48.54C475.667 47.324 473.939 46.716 471.827 46.716C469.683 46.716 467.923 47.324 466.547 48.54C465.171 49.756 464.323 51.452 464.003 53.628ZM498.065 77.1L512.177 33.9H515.969L501.857 77.1H498.065ZM541.599 68.172C538.687 68.172 536.223 67.5 534.207 66.156C532.223 64.812 531.023 62.684 530.607 59.772L534.207 58.956C534.463 60.492 534.943 61.708 535.647 62.604C536.351 63.468 537.215 64.092 538.239 64.476C539.295 64.828 540.415 65.004 541.599 65.004C543.359 65.004 544.751 64.652 545.775 63.948C546.799 63.244 547.311 62.3 547.311 61.116C547.311 59.9 546.815 59.052 545.823 58.572C544.863 58.06 543.535 57.644 541.839 57.324L539.871 56.988C538.367 56.732 536.991 56.332 535.743 55.788C534.495 55.244 533.503 54.508 532.767 53.58C532.031 52.652 531.663 51.484 531.663 50.076C531.663 47.964 532.479 46.316 534.111 45.132C535.743 43.948 537.903 43.356 540.591 43.356C543.247 43.356 545.391 43.964 547.023 45.18C548.687 46.364 549.759 48.044 550.239 50.22L546.687 51.132C546.399 49.436 545.711 48.252 544.623 47.58C543.535 46.876 542.191 46.524 540.591 46.524C538.991 46.524 537.727 46.828 536.799 47.436C535.871 48.012 535.407 48.876 535.407 50.028C535.407 51.148 535.839 51.98 536.703 52.524C537.599 53.036 538.783 53.42 540.255 53.676L542.223 54.012C543.887 54.3 545.375 54.7 546.687 55.212C548.031 55.692 549.087 56.396 549.855 57.324C550.655 58.252 551.055 59.468 551.055 60.972C551.055 63.276 550.191 65.052 548.463 66.3C546.767 67.548 544.479 68.172 541.599 68.172ZM567.391 68.172C565.375 68.172 563.519 67.692 561.823 66.732C560.127 65.772 558.783 64.38 557.791 62.556C556.799 60.732 556.303 58.572 556.303 56.076V55.452C556.303 52.956 556.799 50.812 557.791 49.02C558.783 47.196 560.111 45.804 561.775 44.844C563.471 43.852 565.343 43.356 567.391 43.356C569.023 43.356 570.399 43.58 571.519 44.028C572.671 44.444 573.599 44.988 574.303 45.66C575.007 46.3 575.551 46.988 575.935 47.724H576.607V33.9H580.399V67.5H576.703V63.612H576.031C575.391 64.796 574.399 65.852 573.055 66.78C571.711 67.708 569.823 68.172 567.391 68.172ZM568.399 64.812C570.831 64.812 572.799 64.044 574.303 62.508C575.839 60.94 576.607 58.764 576.607 55.98V55.548C576.607 52.764 575.839 50.604 574.303 49.068C572.799 47.5 570.831 46.716 568.399 46.716C565.999 46.716 564.015 47.5 562.447 49.068C560.911 50.604 560.143 52.764 560.143 55.548V55.98C560.143 58.764 560.911 60.94 562.447 62.508C564.015 64.044 565.999 64.812 568.399 64.812ZM588.346 67.5V33.9H592.138V53.676H592.81L603.562 44.028H608.842L595.834 55.452L609.226 67.5H603.994L592.81 57.276H592.138V67.5H588.346Z" fill="#F1F5F6"/>
<defs>
<linearGradient id="paint0_linear_284_6" x1="98.2741" y1="106.829" x2="104.596" y2="32.9722" gradientUnits="userSpaceOnUse">
<stop stop-color="#0038FF"/>
<stop offset="1" stop-color="#001259"/>
</linearGradient>
<linearGradient id="paint1_linear_284_6" x1="79.3392" y1="1.55959e-07" x2="85.1859" y2="68.322" gradientUnits="userSpaceOnUse">
<stop stop-color="#0038FF"/>
<stop offset="1" stop-color="#001259"/>
</linearGradient>
<linearGradient id="paint2_linear_284_6" x1="109.357" y1="49.4056" x2="121.331" y2="104.958" gradientUnits="userSpaceOnUse">
<stop stop-color="#00B9FF"/>
<stop offset="1" stop-color="#3E1FFF"/>
</linearGradient>
</defs>
</svg>
